<?xml version="1.0" encoding="iso-8859-1"?>
<!-- Generator: Adobe Illustrator 19.0.0, SVG Export Plug-In . SVG Version: 6.00 Build 0)  -->
<svg version="1.1" id="Layer_1" xmlns="http://www.w3.org/2000/svg" xmlns:xlink="http://www.w3.org/1999/xlink" x="0px" y="0px"
	 viewBox="0 0 496.2 496.2" style="enable-background:new 0 0 496.2 496.2;" xml:space="preserve">
<g>
	<path style="fill:#364749;" d="M496.2,248.1C496.2,111.1,385.1,0,248.1,0S0,111.1,0,248.1s111.1,248.1,248.1,248.1
		S496.2,385.1,496.2,248.1z"/>
	<path style="fill:#364749;" d="M319.2,414.1l50.3,50.3c6.3-3.5,12.4-7.3,18.3-11.4l-53.7-53.7L319.2,414.1z"/>
	
		<rect x="237.639" y="317.596" transform="matrix(0.7071 0.7071 -0.7071 0.7071 304.6771 -79.3634)" style="fill:#364749;" width="21" height="21"/>
</g>
<rect x="280.574" y="320.789" transform="matrix(-0.7071 0.7071 -0.7071 -0.7071 759.2929 427.6666)" style="fill:#485E60;" width="21" height="100.599"/>
<g>
	
		<rect x="167.96" y="233.263" transform="matrix(-0.7071 0.7071 -0.7071 -0.7071 487.3748 314.9481)" style="fill:#364749;" width="21" height="50.3"/>
	
		<rect x="208.028" y="267.044" transform="matrix(-0.7071 0.7071 -0.7071 -0.7071 584.1177 355.0372)" style="fill:#364749;" width="21" height="62.899"/>
</g>
<path style="fill:#3F5356;" d="M43.1,108.3c-4,5.9-7.8,12-11.4,18.3l71.1,71.1l14.8-14.8L43.1,108.3z"/>
<rect x="99.797" y="204.993" transform="matrix(-0.7071 -0.7071 0.7071 -0.7071 78.8454 463.6447)" style="fill:#364749;" width="71.299" height="21"/>
<path style="fill:#395154;" d="M319.2,414.1l-71.1,71.1l10.7,10.7c40.1-1.7,77.8-12.9,110.8-31.5L319.2,414.1z"/>
<rect x="154.784" y="360.619" transform="matrix(-0.7071 0.7071 -0.7071 -0.7071 612.5194 488.5234)" style="fill:#485E60;" width="100.599" height="21"/>
<rect x="197.799" y="363.817" transform="matrix(0.7071 0.7071 -0.7071 0.7071 365.4908 -54.1404)" style="fill:#3F5356;" width="100.599" height="100.599"/>
<rect x="110.276" y="251.183" transform="matrix(-0.7071 -0.7071 0.7071 -0.7071 18.0064 610.4235)" style="fill:#395154;" width="50.3" height="100.599"/>
<rect x="144.05" y="291.183" transform="matrix(0.7071 0.7071 -0.7071 0.7071 292.8673 -24.0793)" style="fill:#364749;" width="62.899" height="100.599"/>
<path style="fill:#395154;" d="M102.8,197.7l-71.1-71.1c-18.6,33-29.8,70.7-31.5,110.8l31.4,31.4L102.8,197.7z"/>
<rect x="42.169" y="222.784" transform="matrix(-0.7071 0.7071 -0.7071 -0.7071 340.5942 375.7878)" style="fill:#485E60;" width="100.599" height="71.299"/>
<g>
	<path style="fill:#3F5356;" d="M378.5,354.8l56.4,56.4c11.2-12.8,21.1-26.8,29.5-41.7l-50.3-50.3L378.5,354.8z"/>
	
		<rect x="292.612" y="247.946" transform="matrix(0.7071 -0.7071 0.7071 0.7071 -89.6785 300.3883)" style="fill:#3F5356;" width="50.3" height="21"/>
</g>
<rect x="310.475" y="276.352" transform="matrix(0.7071 0.7071 -0.7071 0.7071 318.8622 -166.7982)" style="fill:#364749;" width="100.599" height="50.3"/>
<g>
	
		<rect x="222.891" y="163.654" transform="matrix(-0.7071 -0.7071 0.7071 -0.7071 289.9266 497.6999)" style="fill:#3F5356;" width="50.3" height="50.3"/>
	
		<rect x="262.937" y="197.391" transform="matrix(0.7071 -0.7071 0.7071 0.7071 -77.4363 270.7343)" style="fill:#3F5356;" width="50.3" height="62.899"/>
	<path style="fill:#3F5356;" d="M162.1,138.4l35.6-35.6l-71.1-71.1C111.7,40.1,97.7,50,84.9,61.2L162.1,138.4z"/>
</g>
<g>
	
		<rect x="169.481" y="120.715" transform="matrix(-0.7071 -0.7071 0.7071 -0.7071 247.0389 394.0554)" style="fill:#485E60;" width="71.299" height="50.3"/>
	<path style="fill:#485E60;" d="M334.1,399.3l53.8,53.8c17.4-11.9,33.3-26,47.1-41.8l-56.4-56.4L334.1,399.3z"/>
</g>
<g>
	
		<rect x="246.299" y="287.992" transform="matrix(-0.7071 0.7071 -0.7071 -0.7071 685.2123 313.1604)" style="fill:#364749;" width="62.899" height="21"/>
	
		<rect x="270.423" y="310.072" transform="matrix(0.7071 0.7071 -0.7071 0.7071 335.4296 -126.7556)" style="fill:#364749;" width="100.599" height="62.899"/>
	
		<rect x="182.893" y="197.374" transform="matrix(-0.7071 -0.7071 0.7071 -0.7071 193.3473 537.7354)" style="fill:#364749;" width="50.3" height="62.899"/>
	
		<rect x="216.607" y="237.367" transform="matrix(0.7071 0.7071 -0.7071 0.7071 262.7366 -96.6681)" style="fill:#364749;" width="62.899" height="62.899"/>
	<path style="fill:#364749;" d="M162.1,138.4L84.9,61.2C69.1,75.1,55,90.9,43.1,108.3l74.5,74.5L162.1,138.4z"/>
</g>
<rect x="133.616" y="150.233" transform="matrix(0.7071 -0.7071 0.7071 0.7071 -83.0925 171.163)" style="fill:#3F5356;" width="62.899" height="71.299"/>
<path style="fill:#506768;" d="M414.1,319.2l50.3,50.3c12.7-22.6,22-47.4,27.1-73.7l-27.1-27.1L414.1,319.2z"/>
<g>
	
		<rect x="350.254" y="179.771" transform="matrix(0.7071 0.7071 -0.7071 0.7071 257.9878 -191.9961)" style="fill:#485E60;" width="21" height="71.299"/>
	
		<rect x="368.051" y="208.167" transform="matrix(0.7071 -0.7071 0.7071 0.7071 -64.522 361.1626)" style="fill:#485E60;" width="71.299" height="100.599"/>
	
		<rect x="255.446" y="120.641" transform="matrix(0.7071 -0.7071 0.7071 0.7071 -17.8297 248.537)" style="fill:#485E60;" width="71.299" height="50.3"/>
</g>
<rect x="295.417" y="154.432" transform="matrix(0.7071 -0.7071 0.7071 0.7071 -34.4708 288.5433)" style="fill:#3F5356;" width="71.299" height="62.899"/>
<g>
	<path style="fill:#485E60;" d="M248.1,52.5L200.3,4.7c-26.3,5.1-51.1,14.4-73.7,27.1l71.1,71.1L248.1,52.5z"/>
	
		<rect x="212.482" y="67.235" transform="matrix(-0.7071 -0.7071 0.7071 -0.7071 350.837 351.09)" style="fill:#485E60;" width="71.299" height="71.299"/>
</g>
<polygon style="fill:#E5B738;" points="439,187.2 293.2,187.2 248.1,48.6 203,187.2 57.2,187.2 175.2,273 130.1,411.6 248.1,325.9 
	366.1,411.6 321,273 "/>
<polygon style="fill:#D68389;" points="416.2,194.6 287.8,194.6 248.1,72.5 208.4,194.6 80,194.6 183.9,270.1 144.2,392.3 
	248.1,316.8 352,392.3 312.3,270.1 "/>
<polygon style="fill:#E08C96;" points="416.2,194.6 287.8,194.6 248.1,72.5 208.4,194.6 80,194.6 183.9,270.1 "/>
<g>
</g>
<g>
</g>
<g>
</g>
<g>
</g>
<g>
</g>
<g>
</g>
<g>
</g>
<g>
</g>
<g>
</g>
<g>
</g>
<g>
</g>
<g>
</g>
<g>
</g>
<g>
</g>
<g>
</g>
</svg>
